<svg width="64" height="64" viewBox="0 0 64 64" fill="none" xmlns="http://www.w3.org/2000/svg">
<circle cx="32" cy="32" r="32" fill="#E8F4FF"/>
<path d="M33.3333 33.3333C33.3333 34.0697 32.7364 34.6667 32 34.6667C31.2636 34.6667 30.6667 34.0697 30.6667 33.3333C30.6667 32.597 31.2636 32 32 32C32.7364 32 33.3333 32.597 33.3333 33.3333Z" fill="#0081F9"/>
<path fill-rule="evenodd" clip-rule="evenodd" d="M32 27C28.5022 27 25.6667 29.8355 25.6667 33.3333C25.6667 36.8311 28.5022 39.6667 32 39.6667C35.4978 39.6667 38.3333 36.8311 38.3333 33.3333C38.3333 29.8355 35.4978 27 32 27ZM27.6667 33.3333C27.6667 30.9401 29.6068 29 32 29C34.3932 29 36.3333 30.9401 36.3333 33.3333C36.3333 35.7266 34.3932 37.6667 32 37.6667C29.6068 37.6667 27.6667 35.7266 27.6667 33.3333Z" fill="#0081F9"/>
<path d="M30.6667 23C30.1144 23 29.6667 23.4477 29.6667 24C29.6667 24.5523 30.1144 25 30.6667 25H33.3333C33.8856 25 34.3333 24.5523 34.3333 24C34.3333 23.4477 33.8856 23 33.3333 23H30.6667Z" fill="#0081F9"/>
<path fill-rule="evenodd" clip-rule="evenodd" d="M30.0708 19C29.2677 19 28.5211 19.413 28.0943 20.0932L26.2116 23.0938C26.1506 23.191 26.0439 23.25 25.9292 23.25H22.6667C20.6416 23.25 19 24.8916 19 26.9167V40C19 42.025 20.6416 43.6667 22.6667 43.6667H41.3333C43.3584 43.6667 45 42.025 45 40V26.9167C45 24.8916 43.3584 23.25 41.3333 23.25H38.0708C37.9561 23.25 37.8494 23.191 37.7884 23.0938L35.9057 20.0932C35.4789 19.413 34.7323 19 33.9292 19H30.0708ZM42.6667 29C42.8508 29 43 29.1492 43 29.3333V37.3333C43 37.5174 42.8508 37.6667 42.6667 37.6667H41.3333C41.1492 37.6667 41 37.5174 41 37.3333V29.3333C41 29.1492 41.1492 29 41.3333 29H42.6667ZM42.6667 27C42.7798 27 42.8911 27.0081 43 27.0236V26.9167C43 25.9962 42.2538 25.25 41.3333 25.25H38.0708C37.2677 25.25 36.5211 24.837 36.0943 24.1568L34.2116 21.1562C34.1506 21.059 34.0439 21 33.9292 21H30.0708C29.9561 21 29.8494 21.059 29.7884 21.1562L27.9057 24.1568C27.4789 24.837 26.7323 25.25 25.9292 25.25H22.6667C21.7462 25.25 21 25.9962 21 26.9167V27.0236C21.1089 27.0081 21.2202 27 21.3333 27H22.6667C23.9553 27 25 28.0447 25 29.3333V37.3333C25 38.622 23.9553 39.6667 22.6667 39.6667H21.3333C21.2202 39.6667 21.1089 39.6586 21 39.643V40C21 40.9205 21.7462 41.6667 22.6667 41.6667H41.3333C42.2538 41.6667 43 40.9205 43 40V39.643C42.8911 39.6586 42.7798 39.6667 42.6667 39.6667H41.3333C40.0447 39.6667 39 38.622 39 37.3333V29.3333C39 28.0447 40.0447 27 41.3333 27H42.6667ZM21 29.3333V37.3333C21 37.5174 21.1492 37.6667 21.3333 37.6667H22.6667C22.8508 37.6667 23 37.5174 23 37.3333V29.3333C23 29.1492 22.8508 29 22.6667 29H21.3333C21.1492 29 21 29.1492 21 29.3333Z" fill="#0081F9"/>
</svg>
