<svg width="219" height="72" viewBox="0 0 219 72" fill="none" xmlns="http://www.w3.org/2000/svg">
<path d="M11.2275 58V30.0325H0.45V25.6H26.7075V30.0325H15.93V58H11.2275ZM28.067 58V33.7H32.252V39.595L31.667 38.83C31.967 38.05 32.357 37.3375 32.837 36.6925C33.317 36.0325 33.872 35.4925 34.502 35.0725C35.117 34.6225 35.7995 34.2775 36.5495 34.0375C37.3145 33.7825 38.0945 33.6325 38.8895 33.5875C39.6845 33.5275 40.4495 33.565 41.1845 33.7V38.11C40.3895 37.9 39.5045 37.84 38.5295 37.93C37.5695 38.02 36.6845 38.3275 35.8745 38.8525C35.1095 39.3475 34.502 39.9475 34.052 40.6525C33.617 41.3575 33.302 42.145 33.107 43.015C32.912 43.87 32.8145 44.7775 32.8145 45.7375V58H28.067ZM51.6287 58.675C49.8287 58.675 48.3212 58.345 47.1062 57.685C45.8912 57.01 44.9687 56.125 44.3387 55.03C43.7237 53.92 43.4162 52.705 43.4162 51.385C43.4162 50.155 43.6337 49.075 44.0687 48.145C44.5037 47.215 45.1487 46.4275 46.0037 45.7825C46.8587 45.1225 47.9087 44.59 49.1537 44.185C50.2337 43.87 51.4562 43.5925 52.8212 43.3525C54.1862 43.1125 55.6187 42.8875 57.1187 42.6775C58.6337 42.4675 60.1337 42.2575 61.6187 42.0475L59.9087 42.9925C59.9387 41.0875 59.5337 39.6775 58.6937 38.7625C57.8687 37.8325 56.4437 37.3675 54.4187 37.3675C53.1437 37.3675 51.9737 37.6675 50.9087 38.2675C49.8437 38.8525 49.1012 39.8275 48.6812 41.1925L44.2937 39.8425C44.8937 37.7575 46.0337 36.1 47.7137 34.87C49.4087 33.64 51.6587 33.025 54.4637 33.025C56.6387 33.025 58.5287 33.4 60.1337 34.15C61.7537 34.885 62.9387 36.055 63.6887 37.66C64.0787 38.455 64.3187 39.295 64.4087 40.18C64.4987 41.065 64.5437 42.0175 64.5437 43.0375V58H60.3812V52.4425L61.1912 53.1625C60.1862 55.0225 58.9037 56.41 57.3437 57.325C55.7987 58.225 53.8937 58.675 51.6287 58.675ZM52.4612 54.8275C53.7962 54.8275 54.9437 54.595 55.9037 54.13C56.8637 53.65 57.6362 53.0425 58.2212 52.3075C58.8062 51.5725 59.1887 50.8075 59.3687 50.0125C59.6237 49.2925 59.7662 48.4825 59.7962 47.5825C59.8412 46.6825 59.8637 45.9625 59.8637 45.4225L61.3937 45.985C59.9087 46.21 58.5587 46.4125 57.3437 46.5925C56.1287 46.7725 55.0262 46.9525 54.0362 47.1325C53.0612 47.2975 52.1912 47.5 51.4262 47.74C50.7812 47.965 50.2037 48.235 49.6937 48.55C49.1987 48.865 48.8012 49.2475 48.5012 49.6975C48.2162 50.1475 48.0737 50.695 48.0737 51.34C48.0737 51.97 48.2312 52.555 48.5462 53.095C48.8612 53.62 49.3412 54.04 49.9862 54.355C50.6312 54.67 51.4562 54.8275 52.4612 54.8275ZM76.0774 58L67.2574 33.7H72.0049L78.4624 52.105L84.9199 33.7H89.6674L80.8474 58H76.0774ZM103.62 58.675C101.205 58.675 99.0824 58.15 97.2524 57.1C95.4374 56.035 94.0199 54.5575 92.9999 52.6675C91.9949 50.7625 91.4924 48.5575 91.4924 46.0525C91.4924 43.3975 91.9874 41.095 92.9774 39.145C93.9824 37.195 95.3774 35.6875 97.1624 34.6225C98.9474 33.5575 101.025 33.025 103.395 33.025C105.87 33.025 107.977 33.6025 109.717 34.7575C111.457 35.8975 112.755 37.525 113.61 39.64C114.48 41.755 114.825 44.2675 114.645 47.1775H109.942V45.4675C109.912 42.6475 109.372 40.5625 108.322 39.2125C107.287 37.8625 105.705 37.1875 103.575 37.1875C101.22 37.1875 99.4499 37.93 98.2649 39.415C97.0799 40.9 96.4874 43.045 96.4874 45.85C96.4874 48.52 97.0799 50.59 98.2649 52.06C99.4499 53.515 101.16 54.2425 103.395 54.2425C104.865 54.2425 106.132 53.9125 107.197 53.2525C108.277 52.5775 109.117 51.6175 109.717 50.3725L114.33 51.835C113.385 54.01 111.952 55.6975 110.032 56.8975C108.112 58.0825 105.975 58.675 103.62 58.675ZM94.9574 47.1775V43.51H112.305V47.1775H94.9574ZM120.143 58V24.925H124.845V58H120.143ZM138.465 58.675C136.665 58.675 135.157 58.345 133.942 57.685C132.727 57.01 131.805 56.125 131.175 55.03C130.56 53.92 130.252 52.705 130.252 51.385C130.252 50.155 130.47 49.075 130.905 48.145C131.34 47.215 131.985 46.4275 132.84 45.7825C133.695 45.1225 134.745 44.59 135.99 44.185C137.07 43.87 138.292 43.5925 139.657 43.3525C141.022 43.1125 142.455 42.8875 143.955 42.6775C145.47 42.4675 146.97 42.2575 148.455 42.0475L146.745 42.9925C146.775 41.0875 146.37 39.6775 145.53 38.7625C144.705 37.8325 143.28 37.3675 141.255 37.3675C139.98 37.3675 138.81 37.6675 137.745 38.2675C136.68 38.8525 135.937 39.8275 135.517 41.1925L131.13 39.8425C131.73 37.7575 132.87 36.1 134.55 34.87C136.245 33.64 138.495 33.025 141.3 33.025C143.475 33.025 145.365 33.4 146.97 34.15C148.59 34.885 149.775 36.055 150.525 37.66C150.915 38.455 151.155 39.295 151.245 40.18C151.335 41.065 151.38 42.0175 151.38 43.0375V58H147.217V52.4425L148.027 53.1625C147.022 55.0225 145.74 56.41 144.18 57.325C142.635 58.225 140.73 58.675 138.465 58.675ZM139.297 54.8275C140.632 54.8275 141.78 54.595 142.74 54.13C143.7 53.65 144.472 53.0425 145.057 52.3075C145.642 51.5725 146.025 50.8075 146.205 50.0125C146.46 49.2925 146.602 48.4825 146.632 47.5825C146.677 46.6825 146.7 45.9625 146.7 45.4225L148.23 45.985C146.745 46.21 145.395 46.4125 144.18 46.5925C142.965 46.7725 141.862 46.9525 140.872 47.1325C139.897 47.2975 139.027 47.5 138.262 47.74C137.617 47.965 137.04 48.235 136.53 48.55C136.035 48.865 135.637 49.2475 135.337 49.6975C135.052 50.1475 134.91 50.695 134.91 51.34C134.91 51.97 135.067 52.555 135.382 53.095C135.697 53.62 136.177 54.04 136.822 54.355C137.467 54.67 138.292 54.8275 139.297 54.8275Z" fill="white"/>
<path d="M199.052 15.9365L193.283 16.8271C193.135 16.8499 192.999 16.918 192.892 17.022C192.785 17.126 192.649 17.1941 192.502 17.2169L177.997 19.456C174.382 20.0141 172.908 24.4233 175.461 27.0434L175.799 27.391C177.533 29.1713 177.496 32.0203 175.716 33.7545L168.045 41.2266C166.265 42.9608 166.228 45.8098 167.962 47.59L171.71 51.4373C173.444 53.2175 176.293 53.2548 178.073 51.5206L185.805 43.9887C187.551 42.2875 190.346 42.324 192.048 44.0704C194.472 46.5589 198.687 45.4016 199.501 42.0243L203.084 27.156L204.167 21.1865C204.718 18.1442 202.108 15.4647 199.052 15.9365Z" stroke="white" stroke-width="3.375"/>
</svg>
