<svg width="24" height="24" viewBox="0 0 24 24" fill="none" xmlns="http://www.w3.org/2000/svg">
<path d="M9.82154 4.26343L9.88668 3.51626L9.82154 4.26343ZM10.9784 3.88752L10.4866 3.32134V3.32134L10.9784 3.88752ZM8.16852 5.46441L8.89925 5.63336L8.16852 5.46441ZM7.45352 6.44854L7.83999 7.09129L7.45352 6.44854ZM6.82212 8.39178L6.13165 8.68461L6.82212 8.39178ZM6.82212 9.60822L6.13165 9.31539L6.82212 9.60822ZM7.45351 11.5515L7.83999 10.9087L7.45351 11.5515ZM8.16852 12.5356L7.4378 12.7045L8.16852 12.5356ZM9.82154 13.7366L9.75641 12.9894L9.82154 13.7366ZM10.9784 14.1125L10.4866 14.6787L10.9784 14.1125ZM13.0217 14.1125L13.5136 14.6787L13.0217 14.1125ZM14.1786 13.7366L14.2437 12.9894L14.1786 13.7366ZM15.8316 12.5356L15.1009 12.3666L15.8316 12.5356ZM16.5466 11.5515L16.1601 10.9087L16.5466 11.5515ZM17.178 9.60822L17.8685 9.31539L17.178 9.60822ZM17.178 8.39178L16.4876 8.09895L17.178 8.39178ZM16.5466 6.44854L16.1601 7.09129L16.5466 6.44854ZM15.8316 5.46441L16.5623 5.29547L15.8316 5.46441ZM14.1786 4.26343L14.2437 5.01059L14.1786 4.26343ZM13.0217 3.88752L13.5136 3.32134L13.0217 3.88752ZM8.75941 13.7153C8.91207 13.3302 8.72367 12.8943 8.33861 12.7417C7.95355 12.589 7.51765 12.7774 7.365 13.1625L8.75941 13.7153ZM6.21948 18.0869L5.52227 17.8105L4.98516 19.1653L6.3998 18.8149L6.21948 18.0869ZM8.60519 17.496L9.23536 17.0893L8.94487 16.6392L8.42487 16.768L8.60519 17.496ZM9.93792 19.5611L9.30776 19.9678L10.098 21.1923L10.6351 19.8375L9.93792 19.5611ZM12.4779 15.1895C12.6305 14.8044 12.4421 14.3685 12.0571 14.2159C11.672 14.0632 11.2361 14.2516 11.0834 14.6367L12.4779 15.1895ZM16.4157 12.7236C16.2631 12.3385 15.8272 12.1501 15.4421 12.3028C15.057 12.4554 14.8687 12.8914 15.0213 13.2764L16.4157 12.7236ZM17.5612 17.6481L17.3809 18.3761L18.7956 18.7264L18.2584 17.3716L17.5612 17.6481ZM15.1755 17.0571L15.3558 16.3291L14.8358 16.2003L14.5454 16.6504L15.1755 17.0571ZM13.8428 19.1222L13.1456 19.3986L13.6827 20.7534L14.473 19.5289L13.8428 19.1222ZM12.6973 14.1978C12.5446 13.8127 12.1087 13.6243 11.7237 13.777C11.3386 13.9296 11.1502 14.3655 11.3029 14.7506L12.6973 14.1978ZM9.75641 5.01059C10.3796 5.06492 10.9981 4.86395 11.4703 4.45371L10.4866 3.32134C10.3213 3.46493 10.1048 3.53528 9.88668 3.51626L9.75641 5.01059ZM8.89925 5.63336C8.98991 5.24121 9.35544 4.97564 9.75641 5.01059L9.88668 3.51626C8.74111 3.4164 7.69682 4.17512 7.4378 5.29547L8.89925 5.63336ZM7.83999 7.09129C8.37608 6.76896 8.75835 6.24281 8.89925 5.63336L7.4378 5.29547C7.38848 5.5088 7.25468 5.69296 7.06704 5.80578L7.83999 7.09129ZM7.51259 8.09895C7.35544 7.7284 7.49506 7.2987 7.83999 7.09129L7.06704 5.80578C6.08156 6.39834 5.68267 7.62598 6.13165 8.68461L7.51259 8.09895ZM7.51259 9.90106C7.75682 9.32518 7.75682 8.67482 7.51259 8.09895L6.13165 8.68461C6.21714 8.88618 6.21714 9.11382 6.13165 9.31539L7.51259 9.90106ZM7.83999 10.9087C7.49506 10.7013 7.35544 10.2716 7.51259 9.90106L6.13165 9.31539C5.68267 10.374 6.08156 11.6017 7.06704 12.1942L7.83999 10.9087ZM8.89925 12.3666C8.75835 11.7572 8.37608 11.231 7.83999 10.9087L7.06704 12.1942C7.25468 12.307 7.38848 12.4912 7.4378 12.7045L8.89925 12.3666ZM9.75641 12.9894C9.35544 13.0244 8.98991 12.7588 8.89925 12.3666L7.4378 12.7045C7.69682 13.8249 8.74111 14.5836 9.88668 14.4837L9.75641 12.9894ZM11.4703 13.5463C10.9981 13.1361 10.3796 12.9351 9.75641 12.9894L9.88668 14.4837C10.1048 14.4647 10.3213 14.5351 10.4866 14.6787L11.4703 13.5463ZM12.5298 13.5463C12.226 13.8103 11.7742 13.8103 11.4703 13.5463L10.4866 14.6787C11.3547 15.4328 12.6455 15.4328 13.5136 14.6787L12.5298 13.5463ZM14.2437 12.9894C13.6206 12.9351 13.002 13.1361 12.5298 13.5463L13.5136 14.6787C13.6788 14.5351 13.8953 14.4647 14.1135 14.4837L14.2437 12.9894ZM15.1009 12.3666C15.0102 12.7588 14.6447 13.0244 14.2437 12.9894L14.1135 14.4837C15.259 14.5836 16.3033 13.8249 16.5623 12.7045L15.1009 12.3666ZM16.1601 10.9087C15.6241 11.231 15.2418 11.7572 15.1009 12.3666L16.5623 12.7045C16.6117 12.4912 16.7455 12.307 16.9331 12.1942L16.1601 10.9087ZM16.4876 9.90106C16.6447 10.2716 16.5051 10.7013 16.1601 10.9087L16.9331 12.1942C17.9186 11.6017 18.3175 10.374 17.8685 9.31539L16.4876 9.90106ZM16.4876 8.09895C16.2433 8.67482 16.2433 9.32518 16.4876 9.90106L17.8685 9.31539C17.783 9.11382 17.783 8.88618 17.8685 8.68461L16.4876 8.09895ZM16.1601 7.09129C16.5051 7.2987 16.6447 7.7284 16.4876 8.09895L17.8685 8.68461C18.3175 7.62598 17.9186 6.39834 16.9331 5.80578L16.1601 7.09129ZM15.1009 5.63336C15.2418 6.24281 15.6241 6.76896 16.1601 7.09129L16.9331 5.80578C16.7455 5.69296 16.6117 5.5088 16.5623 5.29547L15.1009 5.63336ZM14.2437 5.01059C14.6447 4.97564 15.0102 5.24121 15.1009 5.63336L16.5623 5.29547C16.3033 4.17512 15.259 3.4164 14.1135 3.51626L14.2437 5.01059ZM12.5298 4.45371C13.002 4.86395 13.6206 5.06492 14.2437 5.01059L14.1135 3.51626C13.8953 3.53528 13.6788 3.46493 13.5136 3.32134L12.5298 4.45371ZM13.5136 3.32134C12.6455 2.5672 11.3547 2.5672 10.4866 3.32134L11.4703 4.45371C11.7742 4.18975 12.226 4.18975 12.5298 4.45371L13.5136 3.32134ZM13.2501 9C13.2501 9.69036 12.6904 10.25 12.0001 10.25V11.75C13.5189 11.75 14.7501 10.5188 14.7501 9H13.2501ZM12.0001 10.25C11.3097 10.25 10.7501 9.69036 10.7501 9H9.25007C9.25007 10.5188 10.4813 11.75 12.0001 11.75V10.25ZM10.7501 9C10.7501 8.30964 11.3097 7.75 12.0001 7.75V6.25C10.4813 6.25 9.25007 7.48122 9.25007 9H10.7501ZM12.0001 7.75C12.6904 7.75 13.2501 8.30964 13.2501 9H14.7501C14.7501 7.48122 13.5189 6.25 12.0001 6.25V7.75ZM7.365 13.1625L5.52227 17.8105L6.91669 18.3633L8.75941 13.7153L7.365 13.1625ZM6.3998 18.8149L8.78552 18.224L8.42487 16.768L6.03916 17.3589L6.3998 18.8149ZM7.97503 17.9027L9.30776 19.9678L10.5681 19.1544L9.23536 17.0893L7.97503 17.9027ZM15.0213 13.2764L16.864 17.9245L18.2584 17.3716L16.4157 12.7236L15.0213 13.2764ZM17.7416 16.9201L15.3558 16.3291L14.9952 17.7851L17.3809 18.3761L17.7416 16.9201ZM14.5454 16.6504L13.2126 18.7155L14.473 19.5289L15.8057 17.4638L14.5454 16.6504ZM10.6351 19.8375L12.4779 15.1895L11.0834 14.6367L9.24072 19.2847L10.6351 19.8375ZM14.54 18.8458L12.6973 14.1978L11.3029 14.7506L13.1456 19.3986L14.54 18.8458Z" fill="#CC61FF"/>
</svg>
