<svg width="64" height="64" viewBox="0 0 64 64" fill="none" xmlns="http://www.w3.org/2000/svg">
<circle cx="32" cy="32" r="32" fill="#E8F4FF"/>
<path fill-rule="evenodd" clip-rule="evenodd" d="M35.3334 21.6667C32.9402 21.6667 31.0001 23.6068 31.0001 26C31.0001 28.3933 32.9402 30.3334 35.3334 30.3334C37.7267 30.3334 39.6668 28.3933 39.6668 26C39.6668 23.6068 37.7267 21.6667 35.3334 21.6667ZM33.0001 26C33.0001 24.7114 34.0448 23.6667 35.3334 23.6667C36.6221 23.6667 37.6668 24.7114 37.6668 26C37.6668 27.2887 36.6221 28.3334 35.3334 28.3334C34.0448 28.3334 33.0001 27.2887 33.0001 26Z" fill="#0081F9"/>
<path fill-rule="evenodd" clip-rule="evenodd" d="M26.6668 25.6667C24.6417 25.6667 23.0001 27.3083 23.0001 29.3334C23.0001 31.3584 24.6417 33 26.6668 33C28.6918 33 30.3334 31.3584 30.3334 29.3334C30.3334 27.3083 28.6918 25.6667 26.6668 25.6667ZM25.0001 29.3334C25.0001 28.4129 25.7463 27.6667 26.6668 27.6667C27.5872 27.6667 28.3334 28.4129 28.3334 29.3334C28.3334 30.2538 27.5872 31 26.6668 31C25.7463 31 25.0001 30.2538 25.0001 29.3334Z" fill="#0081F9"/>
<path fill-rule="evenodd" clip-rule="evenodd" d="M25.8013 39.8287C26.5806 35.519 30.6022 32.3334 35.3334 32.3334C40.0647 32.3334 44.0863 35.519 44.8655 39.8287C45.1296 41.2896 43.8954 42.3334 42.6668 42.3334H28.0001C26.7714 42.3334 25.5372 41.2896 25.8013 39.8287ZM35.3334 34.3334C31.471 34.3334 28.3596 36.9205 27.7694 40.1846C27.7658 40.2047 27.7683 40.2134 27.7696 40.2174C27.7715 40.2235 27.7773 40.237 27.794 40.2546C27.8302 40.2929 27.9025 40.3334 28.0001 40.3334H42.6668C42.7643 40.3334 42.8366 40.2929 42.8728 40.2546C42.8896 40.237 42.8953 40.2235 42.8973 40.2174C42.8985 40.2134 42.9011 40.2047 42.8974 40.1846C42.3073 36.9205 39.1959 34.3334 35.3334 34.3334Z" fill="#0081F9"/>
<path d="M21.112 40.2062C21.6342 37.6165 23.9239 35.6667 26.6668 35.6667C27.2191 35.6667 27.6668 35.219 27.6668 34.6667C27.6668 34.1144 27.2191 33.6667 26.6668 33.6667C22.9531 33.6667 19.8581 36.3061 19.1515 39.8109C18.8533 41.2896 20.1139 42.3334 21.3334 42.3334H22.6668C23.2191 42.3334 23.6668 41.8856 23.6668 41.3334C23.6668 40.7811 23.2191 40.3334 22.6668 40.3334H21.3334C21.2354 40.3334 21.1641 40.2924 21.1304 40.2566C21.1152 40.2405 21.1109 40.2278 21.1109 40.2278L21.1102 40.2235C21.1102 40.2235 21.11 40.2163 21.112 40.2062Z" fill="#0081F9"/>
</svg>
