<svg width="64" height="64" viewBox="0 0 64 64" fill="none" xmlns="http://www.w3.org/2000/svg">
<circle cx="32" cy="32" r="32" fill="#E8F4FF"/>
<path fill-rule="evenodd" clip-rule="evenodd" d="M40.5364 20.9433C42.127 20.5457 43.621 21.8694 43.4176 23.4964L42.3256 32.2322C42.2798 32.599 42.0369 32.9048 41.7028 33.0375C41.6013 33.2147 41.476 33.3797 41.3287 33.5271L37.3621 37.4936C37.9639 38.4064 38.1264 39.5578 37.7724 40.62L36.1909 45.3645C35.6999 46.8374 33.6389 46.898 33.0623 45.4565L31.3764 41.2419C31.2691 40.9735 31.2359 40.7082 31.2607 40.4577C30.0066 40.3828 28.7665 39.95 27.7038 39.152L26.0405 40.8153C25.65 41.2058 25.0168 41.2058 24.6263 40.8153C24.2358 40.4248 24.2358 39.7916 24.6263 39.4011L26.3034 37.7239C25.5713 36.7054 25.158 35.5124 25.081 34.2948C24.8852 34.3374 24.6729 34.3452 24.4467 34.3075L19.1912 33.4316C17.599 33.1662 17.2761 31.0188 18.7199 30.2969L22.7742 28.2697C24.3209 27.4964 26.1306 27.4655 27.6983 28.1771L30.5808 24.3338C30.7095 24.1621 30.8595 24.0122 31.0249 23.8861C31.1076 23.5226 31.3882 23.2304 31.7575 23.138L40.5364 20.9433ZM41.433 23.2483C41.4621 23.0159 41.2487 22.8268 41.0214 22.8836L34.9313 24.4062C37.2795 25.6706 39.1365 27.1444 40.6871 29.2161L41.433 23.2483ZM29.1387 37.7172L34.0405 32.8153C34.4311 32.4248 34.4311 31.7916 34.0405 31.4011C33.65 31.0105 33.0168 31.0105 32.6263 31.4011L27.7453 36.282C26.7858 34.7191 26.8275 32.6716 27.9858 31.1271L32.1808 25.5338C32.2669 25.4189 32.4069 25.3944 32.5077 25.4425C35.9107 27.0654 38.1445 28.8253 39.9735 31.7678C40.0275 31.8546 40.0278 31.9995 39.9145 32.1128L34.9019 37.1254C33.3482 38.6791 30.935 38.8987 29.1387 37.7172ZM33.3436 40.7747C34.2386 40.4297 35.0183 39.8639 35.8872 39.0089C35.9832 39.3226 35.9827 39.6643 35.875 39.9875L34.5813 43.8688L33.3436 40.7747ZM26.3156 29.7974C25.9949 30.1454 25.6987 30.4735 25.4486 30.7856C25.0794 31.2462 24.7607 31.7305 24.5581 32.2985L20.5311 31.6273L23.6686 30.0586C24.4962 29.6448 25.4394 29.5578 26.3156 29.7974Z" fill="#0081F9"/>
</svg>
