<svg width="18" height="18" viewBox="0 0 18 18" fill="none" xmlns="http://www.w3.org/2000/svg">
<path fill-rule="evenodd" clip-rule="evenodd" d="M8.5 0.25C3.94365 0.25 0.25 3.94365 0.25 8.5C0.25 13.0563 3.94365 16.75 8.5 16.75C10.5081 16.75 12.3487 16.0325 13.7793 14.84L16.4697 17.5303C16.7626 17.8232 17.2374 17.8232 17.5303 17.5303C17.8232 17.2374 17.8232 16.7626 17.5303 16.4697L14.84 13.7793C16.0325 12.3487 16.75 10.5081 16.75 8.5C16.75 3.94365 13.0563 0.25 8.5 0.25ZM1.75 8.5C1.75 4.77208 4.77208 1.75 8.5 1.75C12.2279 1.75 15.25 4.77208 15.25 8.5C15.25 12.2279 12.2279 15.25 8.5 15.25C4.77208 15.25 1.75 12.2279 1.75 8.5Z" fill="#A5B3C0"/>
</svg>
